<svg xmlns="http://www.w3.org/2000/svg" width="59" height="60" viewBox="0 0 59 60"><g><g><g><path fill="#b9bebd" d="M56.29 55.932a2 2 0 0 1-1.994 1.994 2 2 0 0 1-1.995-1.994V16.038h3.99zM15.4 57.926c-1.696 0-2.992-1.296-2.992-2.992v-.997h29.92a4.001 4.001 0 0 0 3.99-3.99V11.052a2 2 0 0 1 1.994-1.995 2 2 0 0 1 1.995 1.995v44.88c0 .698.2 1.396.598 1.995zm-9.973-5.994c-1.696 0-2.993-1.296-2.993-2.991V2.075h35.914v47.863c0 .698.2 1.396.5 1.994zM40.334 9.056h4.587c-.299.599-.598 1.297-.598 1.995v38.887a2 2 0 0 1-1.995 1.994 2 2 0 0 1-1.994-1.994zm11.968 4.987v-2.992a4.001 4.001 0 0 0-3.99-3.99h-7.978V.08H.44v48.87c0 2.792 2.194 4.986 4.987 4.986h4.986v.997c0 2.793 2.195 4.987 4.987 4.987h38.897a4.001 4.001 0 0 0 3.99-3.99V14.043z"/></g><g><path fill="#00b5d1" d="M23.373 10.054c0 1.297-.598 2.394-1.595 3.192l-.4.3v2.492H17.39v-2.493l-.399-.3c-.997-.797-1.595-1.894-1.595-3.19a4.001 4.001 0 0 1 3.989-3.99 4.001 4.001 0 0 1 3.99 3.99zm-3.989 8.976c-.698 0-1.396-.399-1.695-.997h3.39c-.299.598-.997.997-1.695.997zm-3.99-1.995a4.001 4.001 0 0 0 3.99 3.99 4.001 4.001 0 0 0 3.99-3.99v-2.593c1.296-1.097 1.994-2.693 1.994-4.388 0-3.291-2.693-5.984-5.984-5.984S13.4 6.763 13.4 10.054c0 1.695.698 3.291 1.995 4.388z"/></g><g><path fill="#00b5d1" d="M8.22 26.91l-2.094-2.094-1.396 1.396 3.49 3.491 4.888-4.887-1.397-1.396z"/></g><g><path fill="#00b5d1" d="M8.22 35.88l-2.094-2.094-1.396 1.396 3.49 3.491 4.888-4.887-1.397-1.396z"/></g><g><path fill="#00b5d1" d="M8.22 44.86l-2.094-2.094-1.396 1.396 3.49 3.491 4.888-4.887-1.397-1.396z"/></g><g><path fill="#b9bebd" d="M15.4 24.02h20.944v1.995H15.4z"/></g><g><path fill="#b9bebd" d="M15.4 28.01h17.952v1.995H15.4z"/></g><g><path fill="#b9bebd" d="M15.4 32.99h20.944v1.995H15.4z"/></g><g><path fill="#b9bebd" d="M15.4 36.98h17.952v1.995H15.4z"/></g><g><path fill="#b9bebd" d="M15.4 41.97h20.944v1.995H15.4z"/></g><g><path fill="#b9bebd" d="M15.4 45.96h17.952v1.995H15.4z"/></g></g></g></svg>