<svg xmlns="http://www.w3.org/2000/svg" width="220" height="32" viewBox="0 0 220 32"><g><g><g><path fill="#5f604b" d="M42.32 8.17h3.01v13.154h4.384v2.916H42.32V8.17z"/></g><g><path fill="#5f604b" d="M52.52 8.17h8.626v2.99h-5.644v2.91h5.644v2.941h-5.644v4.227h5.644v3.002H52.52V8.17z"/></g><g><path fill="#5f604b" d="M64.02 8.17h2.89l6.761 10.575V8.17h3.01v16.07h-2.896l-6.753-10.542V24.24H64.02V8.17z"/></g><g><path fill="#7d7e6a" d="M20.568 17.137a18.757 18.757 0 0 1-.66 4.102h-3.093v-4.102zm-9.72-2.344c.068-1.387.286-2.763.65-4.102h3.086v4.102zm-1.029 8.744a26.57 26.57 0 0 0 1.439 3.142 12.171 12.171 0 0 1-4.238-3.13zm-1.28-6.388c.05 1.384.245 2.76.582 4.102H5.542a10.713 10.713 0 0 1-1.199-4.102zm6.055 10.362a19.69 19.69 0 0 1-2.305-3.962h2.305zm8.27-12.718a19.71 19.71 0 0 0-.58-4.102h3.584a10.709 10.709 0 0 1 1.201 4.102zm-6.05-10.365A20.216 20.216 0 0 1 19.13 8.39h-2.315zM21.58 8.39a26.912 26.912 0 0 0-1.432-3.133c1.619.72 3.065 1.789 4.238 3.133zm.708 12.849a19.75 19.75 0 0 0 .578-4.102h4.196a10.71 10.71 0 0 1-1.199 4.102zm-2.143 5.44a27.002 27.002 0 0 0 1.439-3.142h2.812a12.253 12.253 0 0 1-4.248 3.142zM11.258 5.257A26.436 26.436 0 0 0 9.819 8.39h-2.8a12.147 12.147 0 0 1 4.239-3.133zm18.096 10.71c-.003-7.673-6.12-13.89-13.663-13.889-7.543.003-13.657 6.224-13.656 13.897.001 7.672 6.117 13.892 13.66 13.892a13.504 13.504 0 0 0 9.679-4.058 13.977 13.977 0 0 0 3.99-9.846zm-13.65 15.966C7.032 31.933 0 24.786 0 15.969-.001 7.15 7.028.002 15.7 0c4.165 0 8.16 1.681 11.105 4.675a16.103 16.103 0 0 1 4.6 11.291c0 8.818-7.03 15.966-15.701 15.967zm4.203-21.242c.372 1.338.593 2.714.661 4.102h-3.753v-4.102zm-7.618-2.3a19.944 19.944 0 0 1 2.305-3.963V8.39zm4.526 15.158h2.315a19.953 19.953 0 0 1-2.315 3.962zM9.12 10.691a19.754 19.754 0 0 0-.582 4.102H4.343c.121-1.436.53-2.832 1.199-4.102zm5.463 6.446v4.102h-3.085a19.233 19.233 0 0 1-.652-4.102z"/></g><g><path fill="#5f604b" d="M87.35 10.756a4.92 4.92 0 0 1 3.689 1.593 5.43 5.43 0 0 1 1.514 3.889 5.418 5.418 0 0 1-1.5 3.883 4.868 4.868 0 0 1-3.656 1.574 5.103 5.103 0 0 1-3.357-1.22c-1.255-1.035-1.882-2.441-1.882-4.219a5.455 5.455 0 0 1 1.499-3.947 4.912 4.912 0 0 1 3.69-1.556m.03-2.993c-2.948.006-5.67 1.604-7.146 4.197a8.42 8.42 0 0 0-1.1 4.24 8.373 8.373 0 0 0 2.353 5.942 8.188 8.188 0 0 0 5.83 2.5 8.185 8.185 0 0 0 5.859-2.433 8.192 8.192 0 0 0 2.398-5.955 8.3 8.3 0 0 0-2.413-6.022 7.808 7.808 0 0 0-5.773-2.469"/></g><g><path fill="#5f604b" d="M96.123 8.17h3.384l3.324 5.16 3.33-5.16h3.38l-5.014 7.793 5.332 8.277h-3.387l-3.638-5.65-3.636 5.65H95.79l5.344-8.283-5.011-7.787z"/></g><g><path fill="#7d7e6a" d="M210.703 21.242l1.355-.826c.945 1.768 2.039 2.653 3.282 2.655a3.138 3.138 0 0 0 1.502-.378 2.622 2.622 0 0 0 1.436-2.347 2.769 2.769 0 0 0-.538-1.585c-.498-.713-1.4-1.571-2.703-2.575-1.303-1.004-2.125-1.736-2.466-2.197a4.051 4.051 0 0 1-.84-2.46 3.774 3.774 0 0 1 .474-1.91 3.525 3.525 0 0 1 1.393-1.36 3.934 3.934 0 0 1 1.956-.5 4.122 4.122 0 0 1 2.102.564c.649.374 1.336 1.065 2.06 2.073l-1.288.99a6.315 6.315 0 0 0-1.523-1.582 2.605 2.605 0 0 0-1.375-.384 2.147 2.147 0 0 0-1.565.592 1.943 1.943 0 0 0-.6 1.453c0 .35.073.696.215 1.015.196.403.462.766.784 1.073.21.201.901.737 2.046 1.603 1.37 1.03 2.311 1.944 2.826 2.743a4.52 4.52 0 0 1 .76 2.42 4.115 4.115 0 0 1-1.307 3.047 4.355 4.355 0 0 1-3.183 1.292c-.93.01-1.84-.261-2.616-.78-.784-.52-1.502-1.393-2.163-2.618zm-10.93-11.493v5.453l2.728.021a6.67 6.67 0 0 0 2.345-.305 2.45 2.45 0 0 0 1.2-.978 2.75 2.75 0 0 0 .423-1.5 2.612 2.612 0 0 0-.447-1.472 2.41 2.41 0 0 0-1.128-.944c-.467-.19-1.243-.284-2.33-.284zm-1.585-1.57h3.15c1.754 0 2.943.074 3.566.22a4.044 4.044 0 0 1 2.29 1.405 4.06 4.06 0 0 1 .88 2.652 4.35 4.35 0 0 1-.599 2.31 3.776 3.776 0 0 1-1.735 1.502c-.753.327-1.796.496-3.129.506l5.694 7.46h-1.954l-5.694-7.46h-.899v7.46h-1.58zm-11.606 1.174a6.737 6.737 0 0 0-5.785 3.435 7.052 7.052 0 0 0-.9 3.508 6.826 6.826 0 0 0 1.938 4.819 6.608 6.608 0 0 0 4.732 1.995 6.668 6.668 0 0 0 3.407-.914 6.438 6.438 0 0 0 2.457-2.505 7.058 7.058 0 0 0 .9-3.502 6.856 6.856 0 0 0-.9-3.459 6.593 6.593 0 0 0-2.472-2.478 6.613 6.613 0 0 0-3.38-.914zm5.944.875a8.18 8.18 0 0 1 2.42 5.998c-.024 3.418-2.059 6.489-5.166 7.797a8.271 8.271 0 0 1-9.078-1.8 8.127 8.127 0 0 1-2.42-5.921 8.688 8.688 0 0 1 1.103-4.294c1.446-2.618 4.175-4.233 7.128-4.218a8.139 8.139 0 0 1 6.013 2.438zm-25.729 11.008l1.35-.82c.948 1.768 2.042 2.653 3.282 2.655a3.108 3.108 0 0 0 1.5-.378 2.652 2.652 0 0 0 1.431-2.356 2.75 2.75 0 0 0-.54-1.585c-.491-.713-1.391-1.571-2.7-2.575-1.308-1.004-2.129-1.736-2.463-2.197a4.057 4.057 0 0 1-.843-2.46c-.006-.67.166-1.33.498-1.91a3.502 3.502 0 0 1 1.392-1.36 3.92 3.92 0 0 1 1.953-.5 4.103 4.103 0 0 1 2.1.564c.65.374 1.338 1.065 2.062 2.072l-1.29.99a6.161 6.161 0 0 0-1.524-1.58 2.565 2.565 0 0 0-1.369-.385 2.156 2.156 0 0 0-1.566.591 1.95 1.95 0 0 0-.6 1.454 2.51 2.51 0 0 0 .177 1.036c.197.401.46.765.78 1.073.213.201.9.738 2.047 1.603 1.372 1.03 2.312 1.944 2.82 2.743.48.714.745 1.555.762 2.42a4.117 4.117 0 0 1-1.305 3.047 4.353 4.353 0 0 1-3.18 1.293 4.604 4.604 0 0 1-2.614-.78c-.777-.522-1.5-1.393-2.163-2.619zm-4.885-13.077h1.59v16.066h-1.59zm-16.87 0h1.723l5.243 12.408 5.333-12.402h1.72l-6.885 16.06h-.342zM131.825 22.71h1.827c2.19 0 3.705-.137 4.554-.415a5.25 5.25 0 0 0 2.802-2.133 6.593 6.593 0 0 0 1.026-3.751 6.938 6.938 0 0 0-1.11-3.962 5.59 5.59 0 0 0-3.084-2.259c-1-.306-2.632-.46-4.896-.46h-1.119zm-1.513 1.524V8.165h3.278c2.363 0 4.08.193 5.153.579a6.915 6.915 0 0 1 3.599 2.837 8.752 8.752 0 0 1 1.292 4.821 8.545 8.545 0 0 1-1.025 4.267 6.598 6.598 0 0 1-2.67 2.71c-1.087.58-2.62.871-4.595.871zm-9.607-12.657l-2.702 5.818h5.405zm.198-3.413l7.375 16.07h-1.707l-2.474-5.285h-6.825l-2.472 5.285h-1.76l7.476-16.07z"/></g></g></g></svg>